<svg width="47" height="47" viewBox="0 0 47 47" fill="none" xmlns="http://www.w3.org/2000/svg">
<path d="M34.7213 23.5392L42.5155 15.745C43.2792 14.9813 43.2792 13.7475 42.5155 12.9838L34.0163 4.48459C33.2526 3.72084 32.0188 3.72084 31.2551 4.48459L23.4609 12.2788L15.6667 4.48459C15.2751 4.1125 14.7855 3.91667 14.2763 3.91667C13.7867 3.91667 13.2776 4.1125 12.9055 4.48459L4.40631 12.9838C3.64256 13.7475 3.64256 14.9813 4.40631 15.745L12.2005 23.5392L4.40631 31.3333C3.64256 32.0971 3.64256 33.3308 4.40631 34.0946L12.9055 42.5938C13.6692 43.3575 14.903 43.3575 15.6667 42.5938L23.4609 34.7996L31.2551 42.5938C31.6467 42.9854 32.1363 43.1617 32.6455 43.1617C33.1546 43.1617 33.6442 42.9658 34.0359 42.5938L42.5351 34.0946C43.2988 33.3308 43.2988 32.0971 42.5351 31.3333L34.7213 23.5392ZM23.5001 17.625C24.5771 17.625 25.4584 18.5063 25.4584 19.5833C25.4584 20.6604 24.5771 21.5417 23.5001 21.5417C22.423 21.5417 21.5417 20.6604 21.5417 19.5833C21.5417 18.5063 22.423 17.625 23.5001 17.625ZM14.2763 21.4633L7.16756 14.3742L14.2763 7.26542L21.3655 14.3546L14.2763 21.4633ZM19.5834 25.4583C18.5063 25.4583 17.6251 24.5771 17.6251 23.5C17.6251 22.4229 18.5063 21.5417 19.5834 21.5417C20.6605 21.5417 21.5417 22.4229 21.5417 23.5C21.5417 24.5771 20.6605 25.4583 19.5834 25.4583ZM23.5001 29.375C22.423 29.375 21.5417 28.4938 21.5417 27.4167C21.5417 26.3396 22.423 25.4583 23.5001 25.4583C24.5771 25.4583 25.4584 26.3396 25.4584 27.4167C25.4584 28.4938 24.5771 29.375 23.5001 29.375ZM27.4167 21.5417C28.4938 21.5417 29.3751 22.4229 29.3751 23.5C29.3751 24.5771 28.4938 25.4583 27.4167 25.4583C26.3396 25.4583 25.4584 24.5771 25.4584 23.5C25.4584 22.4229 26.3396 21.5417 27.4167 21.5417ZM32.6259 39.8325L25.5171 32.7433L32.6259 25.6346L39.7151 32.7237L32.6259 39.8325Z" fill="#DB0000"/>
</svg>
