<svg width="47" height="47" viewBox="0 0 47 47" fill="none" xmlns="http://www.w3.org/2000/svg">
<path d="M37.2083 17.625H34.1533C34.8388 16.4696 35.25 15.1379 35.25 13.7083C35.25 9.38041 31.7446 5.87499 27.4167 5.87499C26.7508 5.87499 26.1242 5.97291 25.4975 6.12958C23.8917 4.79791 21.855 3.95583 19.5833 3.95583C15.8821 3.95583 12.7096 6.12958 11.2213 9.26291C8.12708 10.3008 5.875 13.1992 5.875 16.6458C5.875 20.2883 8.38167 23.3237 11.75 24.205V41.125H33.2917V37.2083H37.2083C39.3625 37.2083 41.125 35.4458 41.125 33.2917V21.5417C41.125 19.3875 39.3625 17.625 37.2083 17.625ZM13.7083 20.5625C11.5542 20.5625 9.79167 18.8 9.79167 16.6458C9.79167 14.9812 10.8688 13.5125 12.4746 12.9642L14.0413 12.4354L14.7463 10.9471C15.6667 9.04749 17.5075 7.87249 19.5833 7.87249C21.1304 7.87249 22.3054 8.55791 22.9908 9.14541L24.5183 10.4183C24.5183 10.4183 25.7717 9.79166 27.3971 9.79166C29.5513 9.79166 31.3137 11.5542 31.3137 13.7083H25.4387C18.9371 13.7083 17.9188 20.5625 13.7083 20.5625ZM37.2083 33.2917H33.2917V21.5417H37.2083V33.2917Z" fill="#DB0000"/>
</svg>
