<svg width="47" height="47" viewBox="0 0 47 47" fill="none" xmlns="http://www.w3.org/2000/svg">
<path d="M39.1667 11.75H34.8976C35.113 11.1429 35.2501 10.4771 35.2501 9.79166C35.2501 6.54082 32.6259 3.91666 29.3751 3.91666C27.3188 3.91666 25.5367 4.97416 24.4792 6.56041L23.5001 7.87249L22.5209 6.54082C21.4634 4.97416 19.6813 3.91666 17.6251 3.91666C14.3742 3.91666 11.7501 6.54082 11.7501 9.79166C11.7501 10.4771 11.8872 11.1429 12.1026 11.75H7.83341C5.65966 11.75 3.93633 13.4929 3.93633 15.6667L3.91675 37.2083C3.91675 39.3821 5.65966 41.125 7.83341 41.125H39.1667C41.3405 41.125 43.0834 39.3821 43.0834 37.2083V15.6667C43.0834 13.4929 41.3405 11.75 39.1667 11.75ZM29.3751 7.83332C30.4522 7.83332 31.3334 8.71457 31.3334 9.79166C31.3334 10.8687 30.4522 11.75 29.3751 11.75C28.298 11.75 27.4167 10.8687 27.4167 9.79166C27.4167 8.71457 28.298 7.83332 29.3751 7.83332ZM17.6251 7.83332C18.7022 7.83332 19.5834 8.71457 19.5834 9.79166C19.5834 10.8687 18.7022 11.75 17.6251 11.75C16.548 11.75 15.6667 10.8687 15.6667 9.79166C15.6667 8.71457 16.548 7.83332 17.6251 7.83332ZM39.1667 37.2083H7.83341V33.2917H39.1667V37.2083ZM39.1667 27.4167H7.83341V15.6667H17.7817L13.7084 21.2087L16.8809 23.5L21.5417 17.155L23.5001 14.4917L25.4584 17.155L30.1192 23.5L33.2917 21.2087L29.2184 15.6667H39.1667V27.4167Z" fill="#DB0000"/>
</svg>
