<svg width="47" height="47" viewBox="0 0 47 47" fill="none" xmlns="http://www.w3.org/2000/svg">
<path d="M35.2501 15.6667C35.2501 9.18458 29.9822 3.91666 23.5001 3.91666C17.018 3.91666 11.7501 9.18458 11.7501 15.6667C11.7501 24.4792 23.5001 37.2083 23.5001 37.2083C23.5001 37.2083 35.2501 24.4792 35.2501 15.6667ZM19.5834 15.6667C19.5834 13.5125 21.3459 11.75 23.5001 11.75C25.6543 11.75 27.4167 13.5125 27.4167 15.6667C27.4167 17.8208 25.6738 19.5833 23.5001 19.5833C21.3459 19.5833 19.5834 17.8208 19.5834 15.6667ZM9.79175 39.1667V43.0833H37.2084V39.1667H9.79175Z" fill="#DB0000"/>
</svg>
