<svg width="47" height="47" viewBox="0 0 47 47" fill="none" xmlns="http://www.w3.org/2000/svg">
<path d="M31.3333 21.5417C34.5841 21.5417 37.1887 18.9175 37.1887 15.6667C37.1887 12.4158 34.5841 9.79166 31.3333 9.79166C28.0824 9.79166 25.4583 12.4158 25.4583 15.6667C25.4583 18.9175 28.0824 21.5417 31.3333 21.5417ZM15.6666 21.5417C18.9174 21.5417 21.522 18.9175 21.522 15.6667C21.522 12.4158 18.9174 9.79166 15.6666 9.79166C12.4158 9.79166 9.79158 12.4158 9.79158 15.6667C9.79158 18.9175 12.4158 21.5417 15.6666 21.5417ZM15.6666 25.4583C11.1037 25.4583 1.95825 27.7496 1.95825 32.3125V37.2083H29.3749V32.3125C29.3749 27.7496 20.2295 25.4583 15.6666 25.4583ZM31.3333 25.4583C30.7653 25.4583 30.1191 25.4975 29.4337 25.5562C31.7053 27.2012 33.2916 29.4142 33.2916 32.3125V37.2083H45.0416V32.3125C45.0416 27.7496 35.8962 25.4583 31.3333 25.4583Z" fill="#DB0000"/>
</svg>
