<svg width="47" height="47" viewBox="0 0 47 47" fill="none" xmlns="http://www.w3.org/2000/svg">
<path d="M39.1863 30.1192C36.7775 30.1192 34.4471 29.7275 32.2733 29.0225C31.5879 28.7875 30.8242 28.9638 30.2954 29.4925L27.2208 33.3504C21.6788 30.7067 16.4892 25.7129 13.7279 19.975L17.5467 16.7242C18.0754 16.1758 18.2321 15.4121 18.0167 14.7267C17.2921 12.5529 16.92 10.2225 16.92 7.81375C16.92 6.75625 16.0388 5.875 14.9813 5.875H8.20542C7.14792 5.875 5.875 6.345 5.875 7.81375C5.875 26.0067 21.0129 41.125 39.1863 41.125C40.5767 41.125 41.125 39.8913 41.125 38.8142V32.0579C41.125 31.0004 40.2438 30.1192 39.1863 30.1192Z" fill="#DB0000"/>
</svg>
