<svg width="47" height="47" viewBox="0 0 47 47" fill="none" xmlns="http://www.w3.org/2000/svg">
<path d="M42.8876 17.4096L40.8313 8.85167C40.4005 7.08917 38.873 5.875 37.0909 5.875H9.88966C8.12716 5.875 6.58007 7.10875 6.16882 8.85167L4.11257 17.4096C3.64257 19.4071 4.07341 21.4438 5.32674 23.0496C5.48341 23.265 5.69882 23.4217 5.87507 23.6175V37.2083C5.87507 39.3625 7.63757 41.125 9.79174 41.125H37.2084C39.3626 41.125 41.1251 39.3625 41.1251 37.2083V23.6175C41.3013 23.4413 41.5167 23.265 41.6734 23.0692C42.9267 21.4633 43.3772 19.4071 42.8876 17.4096ZM37.0322 9.77208L39.0884 18.33C39.2842 19.1525 39.108 19.975 38.5988 20.6213C38.3247 20.9738 37.7372 21.5417 36.758 21.5417C35.5634 21.5417 34.5255 20.5821 34.3884 19.3092L33.2526 9.79167L37.0322 9.77208ZM25.4584 9.79167H29.2967L30.3542 18.6433C30.4522 19.4071 30.2172 20.1708 29.708 20.7388C29.2772 21.2479 28.6505 21.5417 27.8476 21.5417C26.5355 21.5417 25.4584 20.3862 25.4584 18.9762V9.79167ZM16.6263 18.6433L17.7034 9.79167H21.5417V18.9762C21.5417 20.3862 20.4647 21.5417 19.0155 21.5417C18.3497 21.5417 17.7426 21.2479 17.2726 20.7388C16.783 20.1708 16.548 19.4071 16.6263 18.6433ZM7.91174 18.33L9.88966 9.79167H13.7476L12.6117 19.3092C12.4551 20.5821 11.4367 21.5417 10.2422 21.5417C9.28257 21.5417 8.67549 20.9738 8.42091 20.6213C7.89216 19.9946 7.71591 19.1525 7.91174 18.33ZM9.79174 37.2083V25.3996C9.94841 25.4192 10.0855 25.4583 10.2422 25.4583C11.9459 25.4583 13.493 24.7533 14.6288 23.5979C15.8038 24.7729 17.3705 25.4583 19.1526 25.4583C20.8563 25.4583 22.3838 24.7533 23.5197 23.6371C24.6751 24.7533 26.2417 25.4583 28.0042 25.4583C29.6492 25.4583 31.2159 24.7729 32.3909 23.5979C33.5267 24.7533 35.0738 25.4583 36.7776 25.4583C36.9342 25.4583 37.0713 25.4192 37.228 25.3996V37.2083H9.79174Z" fill="#DB0000"/>
</svg>
