<svg width="47" height="47" viewBox="0 0 47 47" fill="none" xmlns="http://www.w3.org/2000/svg">
<path d="M23.5001 3.91666C15.9409 3.91666 9.79175 10.0658 9.79175 17.625C9.79175 27.9062 23.5001 43.0833 23.5001 43.0833C23.5001 43.0833 37.2084 27.9062 37.2084 17.625C37.2084 10.0658 31.0593 3.91666 23.5001 3.91666ZM25.2234 30.8437H21.7963V27.4167H25.2234V30.8437ZM25.2234 25.2233H21.7963C21.7963 19.6617 26.9272 20.0925 26.9272 16.6458C26.9272 14.7658 25.3801 13.2187 23.5001 13.2187C21.6201 13.2187 20.073 14.7658 20.073 16.6458H16.6459C16.6459 12.8662 19.7205 9.79166 23.5001 9.79166C27.2797 9.79166 30.3543 12.8662 30.3543 16.6458C30.3543 20.9346 25.2234 21.3654 25.2234 25.2233Z" fill="#DB0000"/>
</svg>
